<svg width="46" height="46" viewBox="0 0 46 46" fill="none" xmlns="http://www.w3.org/2000/svg">
<path d="M40.2578 32.1719V29.4766H37.5625V28.1289C37.5625 23.3848 34.0422 19.4479 29.4766 18.792V16H26.7812V18.792C22.2157 19.4479 18.6953 23.3847 18.6953 28.1289V29.4766H16V32.1719H40.2578ZM21.3906 28.1289C21.3906 24.4134 24.4134 21.3906 28.1289 21.3906C31.8444 21.3906 34.8672 24.4134 34.8672 28.1289V29.4766H21.3906V28.1289Z" fill="black"/>
<path d="M29.8281 0H0V37.8242H10.9609V46H46V8.08594H29.8281V0ZM10.9609 35.1289H2.69531V2.69531H22.7717L10.9609 8.60065V35.1289ZM27.1328 3.52825V8.08594H18.0174L27.1328 3.52825ZM43.3047 10.7812V43.3047H13.6562V10.7812H43.3047Z" fill="black"/>
<path d="M19 38H37.8672V40.6953H19V38Z" fill="black"/>
</svg>
