<svg width="48" height="34" viewBox="0 0 48 34" fill="none" xmlns="http://www.w3.org/2000/svg">
<path d="M46.3706 14.9924L43.1021 13.5778L40.3265 8.1767C39.5764 6.69782 38.0546 5.7762 36.3936 5.78692H31.614V4.43664C31.614 1.99327 29.6636 0 27.2202 0H4.37262C1.92926 0 0.000285144 2.00399 0.000285144 4.43664V25.1195C-0.0211479 26.6091 1.16838 27.8308 2.65798 27.8522C2.6687 27.8522 2.67941 27.8522 2.70085 27.8522H3.26882C3.26882 27.9594 3.2581 28.0022 3.2581 28.0665C3.24739 31.1315 5.7229 33.6284 8.78782 33.6391C11.8527 33.6498 14.3497 31.1743 14.3604 28.1094C14.3604 28.088 14.3604 28.0773 14.3604 28.0558C14.3604 27.9808 14.3604 27.9487 14.3497 27.8415H32.8142C32.8142 27.9487 32.8142 27.9915 32.8142 28.0558C32.8035 31.1207 35.279 33.6177 38.344 33.6284C41.4089 33.6391 43.9058 31.1636 43.9165 28.0987C43.9165 28.0773 43.9165 28.0665 43.9165 28.0451C43.9165 27.9701 43.9165 27.9379 43.9165 27.8308H45.299C46.7886 27.8308 47.9995 26.6198 47.9995 25.1302C47.9995 25.1195 47.9995 25.1088 47.9995 25.0874V17.4786C48.021 16.4284 47.378 15.4318 46.3706 14.9924ZM8.81997 31.5065C6.93387 31.5065 5.41212 29.9848 5.41212 28.0987C5.41212 26.2126 6.93387 24.6908 8.81997 24.6908C10.7061 24.6908 12.2278 26.2126 12.2278 28.0987C12.2278 29.9741 10.6954 31.5065 8.81997 31.5065ZM29.4707 25.7303H13.846C12.9458 23.7692 10.974 22.5154 8.81997 22.5261C6.65524 22.5154 4.69412 23.7585 3.79393 25.7303H2.70085C2.36863 25.7303 2.14359 25.4731 2.14359 25.1409V19.6219H29.4707V25.7303ZM29.4707 4.44735V17.4786H2.14359V4.44735C2.14359 3.19352 3.11879 2.15402 4.37262 2.15402H27.2202C28.4741 2.16473 29.4814 3.19352 29.4707 4.43664V4.44735ZM31.614 7.94093H36.3936C37.2402 7.93022 38.0332 8.39103 38.4297 9.1519L40.573 13.2992H31.614V7.94093ZM38.3761 31.5065C36.49 31.5065 34.9683 29.9848 34.9683 28.0987C34.9683 26.2126 36.49 24.6908 38.3761 24.6908C40.2622 24.6908 41.784 26.2126 41.784 28.0987C41.784 29.9741 40.2622 31.5065 38.3761 31.5065ZM45.867 25.1409C45.867 25.4731 45.6419 25.7303 45.3097 25.7303H43.4022C42.1055 22.9548 38.8048 21.7545 36.0292 23.0512C34.8504 23.5978 33.8966 24.5515 33.3501 25.7303H31.614V15.4425H42.1162L45.524 16.9428C45.7384 17.05 45.8777 17.2857 45.867 17.5215V25.1409Z" fill="black"/>
</svg>
