<svg width="48" height="48" viewBox="0 0 48 48" fill="none" xmlns="http://www.w3.org/2000/svg">
<path d="M46.3573 23.5192H45.6204C45.549 23.0872 45.5121 22.6796 45.5941 22.3776C45.7382 21.8468 46.2123 21.2843 46.6707 20.7402C47.3202 19.9696 47.9917 19.1728 47.9999 18.2008C48.0101 16.9774 47.1655 16.0671 46.4202 15.2639C46.0157 14.8279 45.6335 14.4161 45.4854 14.0553C45.308 13.6227 45.2206 13.0382 45.136 12.4731C44.9599 11.2949 44.7602 9.95949 43.6358 9.38293C42.5101 8.80665 41.3094 9.42455 40.2495 9.96999C39.7418 10.2314 39.2166 10.5016 38.7626 10.6102C38.4237 10.691 37.9195 10.6404 37.4734 10.5865C37.0884 10.5399 36.7376 10.8147 36.691 11.2002C36.6445 11.5857 36.9193 11.936 37.3048 11.9825C37.8977 12.0542 38.5243 12.1127 39.0893 11.9779C39.709 11.8297 40.3109 11.52 40.893 11.2203C41.7255 10.7919 42.5118 10.3872 42.9943 10.6344C43.4762 10.8814 43.6069 11.7555 43.7453 12.6811C43.8421 13.329 43.9424 13.999 44.1844 14.5892C44.4293 15.1858 44.9173 15.7118 45.3894 16.2205C45.9842 16.8615 46.5992 17.5244 46.5937 18.1891C46.5898 18.6543 46.0842 19.2541 45.5955 19.8341C45.0385 20.4951 44.4626 21.1784 44.2371 22.0091C44.1068 22.4889 44.1281 23.0098 44.1986 23.5193H39.477C39.466 22.9018 39.2003 22.3478 38.839 21.8248C39.3112 20.5163 39.7306 19.1697 40.086 17.8156C40.1847 17.4401 39.96 17.0557 39.5845 16.9571C39.2086 16.8585 38.8245 17.0831 38.7259 17.4587C38.4547 18.4919 38.1449 19.5205 37.8024 20.5303C37.3914 20.0333 37.0123 19.5278 36.8801 19.041C36.7493 18.5598 36.8847 17.8677 37.0279 17.1351C37.2331 16.0853 37.4658 14.8954 36.9482 13.8853C36.4304 12.8748 35.328 12.3688 34.3554 11.9222C33.6773 11.6109 33.0368 11.3168 32.7228 10.9308C32.3406 10.4596 32.1448 9.68255 31.9554 8.93106C31.6918 7.88453 31.4191 6.80238 30.5878 6.193C29.5389 5.42501 28.2186 5.59029 27.054 5.73597C26.4109 5.81651 25.8035 5.89263 25.3837 5.79232C24.8851 5.67335 24.3139 5.37954 23.7614 5.09529C22.6286 4.51254 21.3451 3.85198 20.1552 4.46201C19.0258 5.04082 18.7763 6.35754 18.5927 7.56756C18.0284 7.30403 17.5222 7.04153 17.2541 6.712C16.8719 6.24072 16.6761 5.46373 16.4867 4.71223C16.2231 3.6657 15.9504 2.58355 15.1191 1.97418C14.0702 1.20618 12.7499 1.37146 11.5853 1.51715C10.9424 1.59768 10.3349 1.67362 9.91504 1.57349C9.41639 1.45452 8.84517 1.16071 8.29271 0.876463C7.16002 0.293903 5.87631 -0.36647 4.68681 0.243184C3.49704 0.852463 3.28338 2.28027 3.09504 3.54008C3.00316 4.15461 2.90801 4.78995 2.71329 5.26451C2.5496 5.66388 2.13317 6.11266 1.69217 6.58788C0.893983 7.44813 -0.010701 8.42321 8.01767e-05 9.72305C0.00879889 10.7536 0.728234 11.6072 1.42395 12.4327C1.92335 13.0253 2.43982 13.638 2.59891 14.223C2.72923 14.7036 2.59385 15.3954 2.4506 16.1277C2.2451 17.1779 2.01214 18.3684 2.52991 19.378C3.04751 20.3882 4.14953 20.8943 5.1219 21.3408C5.80028 21.6523 6.44115 21.9466 6.75559 22.334C6.99877 22.6332 7.1663 23.0571 7.30486 23.5192H1.64267C0.715296 23.5141 -0.0498884 24.3239 0.00289267 25.2487C0.15083 27.8409 0.846077 30.3117 2.06923 32.5922C2.25279 32.9345 2.67907 33.0632 3.02116 32.8795C3.36335 32.6959 3.49197 32.2697 3.30841 31.9276C2.18285 29.8288 1.54301 27.5547 1.4067 25.1684C1.39854 25.0255 1.48911 24.9303 1.64267 24.9254H46.3573C46.5124 24.9309 46.6013 25.0251 46.5932 25.1685C46.365 29.1654 44.6766 32.9296 41.8387 35.7677C38.6904 38.9163 34.6784 40.5381 30.294 40.5497H17.7059C12.7609 40.5486 8.20346 38.4077 5.04437 34.5306C4.79912 34.2296 4.35625 34.1842 4.05513 34.4298C3.7541 34.6752 3.709 35.118 3.95435 35.4191C6.15709 38.1216 9.04833 40.0734 12.2737 41.1083V43.1155C12.2737 45.8087 14.4648 47.9998 17.158 47.9998H30.8418C33.5351 47.9998 35.7262 45.8087 35.7262 43.1155V41.1112C38.3773 40.2615 40.8071 38.7875 42.8331 36.762C45.9154 33.6795 47.7493 29.5907 47.9972 25.2487C48.05 24.3238 47.2797 23.5146 46.3573 23.5192ZM16.4362 23.5192C14.681 20.8636 13.184 18.0422 11.9857 15.1263C11.1628 13.1253 10.4654 11.0424 9.91279 8.93509C9.81417 8.55943 9.42989 8.3349 9.05433 8.43325C8.67867 8.53178 8.45405 8.91606 8.55249 9.29171C9.12089 11.4594 9.83845 13.6023 10.685 15.661C11.8018 18.3784 13.17 21.0162 14.7597 23.5192H8.76577C8.56786 22.7731 8.32514 22.0355 7.84721 21.4474C7.32624 20.8056 6.50406 20.4279 5.70878 20.0628C4.90647 19.6944 4.07697 19.3135 3.78128 18.7365C3.48579 18.1602 3.6611 17.2642 3.8306 16.3977C3.9985 15.5394 4.17222 14.6519 3.95594 13.8544C3.71519 12.9693 3.09701 12.2358 2.49907 11.5264C1.96395 10.8915 1.41064 10.2348 1.40623 9.71124C1.40004 8.97015 2.07251 8.24528 2.72294 7.54431C3.22966 6.99813 3.75372 6.43328 4.01416 5.79822C4.27347 5.16635 4.38128 4.44542 4.48563 3.74811C4.63741 2.73336 4.78075 1.77496 5.32787 1.49474C5.87528 1.21424 6.73665 1.65768 7.64921 2.12708C8.27611 2.44958 8.92439 2.78305 9.58851 2.94149C10.2559 3.10086 11.0205 3.00514 11.7598 2.9127C12.7088 2.79392 13.6902 2.67111 14.288 3.10874C14.7104 3.41839 14.9201 4.25089 15.123 5.05592C15.3496 5.95544 15.584 6.88563 16.1624 7.59869C16.6835 8.23956 17.5052 8.61681 18.2999 8.98159C19.1025 9.35002 19.9323 9.73102 20.2279 10.3079C20.5234 10.8846 20.3483 11.7804 20.1789 12.6465C20.011 13.5053 19.8374 14.3932 20.054 15.1902C20.1501 15.5456 20.3101 15.8757 20.49 16.1727C18.5974 17.1832 17.3062 19.1777 17.3062 21.4688C17.3062 22.1722 17.4298 22.8657 17.6674 23.5193H16.4362V23.5192ZM27.4168 23.5192H19.1956C18.8789 22.8852 18.7124 22.1838 18.7124 21.4687C18.7124 18.9356 20.7731 16.8749 23.3062 16.8749C25.8392 16.8749 27.8999 18.9356 27.8999 21.4687C27.9 22.1839 27.7334 22.8853 27.4168 23.5192ZM32.3293 23.5192H28.945C29.1826 22.8656 29.3061 22.1722 29.3061 21.4687C29.3061 19.6804 28.5188 18.0734 27.2736 16.9732C27.5811 16.9091 27.8963 16.8749 28.2186 16.8749C30.7517 16.8749 32.8124 18.9356 32.8124 21.4687C32.8125 22.1839 32.646 22.8853 32.3293 23.5192ZM33.8575 23.5192C34.095 22.8656 34.2187 22.1722 34.2187 21.4687C34.2187 18.1602 31.5272 15.4687 28.2187 15.4687C27.3704 15.4687 26.5271 15.6498 25.7587 15.9949C25.0094 15.6579 24.1797 15.4687 23.3062 15.4687C22.7964 15.4687 22.3013 15.5331 21.8284 15.6533C21.6517 15.3955 21.489 15.1089 21.4114 14.8221C21.2806 14.3409 21.416 13.6488 21.5592 12.9162C21.7644 11.8664 21.9971 10.6765 21.4795 9.66634C21.1417 9.00709 20.5547 8.56318 19.9177 8.20984C20.0699 7.20953 20.2069 6.01554 20.7968 5.71338C21.3442 5.43298 22.2055 5.87632 23.1181 6.34572C23.745 6.66822 24.3933 7.00169 25.0574 7.16013C25.7249 7.3195 26.4893 7.22378 27.2287 7.13135C28.1777 7.01256 29.1591 6.88985 29.7569 7.32738C30.1793 7.63712 30.389 8.46953 30.5919 9.27456C30.8185 10.1741 31.0529 11.1043 31.6313 11.8173C32.1524 12.4582 32.9741 12.8354 33.7688 13.2002C34.5714 13.5687 35.4012 13.9497 35.6968 14.5265C35.9923 15.1033 35.8171 15.999 35.6478 16.8652C35.4799 17.7239 35.3063 18.6118 35.523 19.4095C35.7634 20.2951 36.3818 21.0289 36.9798 21.7385C37.5036 22.3599 38.0434 23.0019 38.0696 23.5192H33.8575ZM34.32 43.1155C34.32 45.0333 32.7597 46.5936 30.8418 46.5936H17.1581C15.2403 46.5936 13.68 45.0333 13.68 43.1155V41.4959C14.9853 41.7986 16.3343 41.956 17.7059 41.956H30.294C31.6665 41.956 33.0149 41.8001 34.3199 41.4985V43.1155H34.32Z" fill="black"/>
</svg>
