<svg width="83" height="125" viewBox="0 0 83 125" fill="none" xmlns="http://www.w3.org/2000/svg">
<line y1="-1" x2="67.9122" y2="-1" transform="matrix(-0.0149414 0.999888 -0.999895 -0.014471 40 56.0953)" stroke="#FF583E" stroke-width="2"/>
<path d="M74 39.8572C74 57.5216 59.2254 60.0319 41 60.0319C22.7746 60.0319 8 57.5216 8 39.8572C8 22.1929 22.7746 7.87305 41 7.87305C59.2254 7.87305 74 22.1929 74 39.8572Z" fill="#E95943"/>
<path d="M27.8555 31.856H23.7295V33.646H25.2148C26.3024 33.646 27.1636 33.9105 27.7983 34.4395C28.4373 34.9642 28.7568 35.673 28.7568 36.5659C28.7568 37.4631 28.4395 38.1846 27.8047 38.7305C27.1742 39.2721 26.3341 39.5472 25.2847 39.5557H21.8062V30.3135H27.8555V31.856ZM23.7295 35.1821V38.0259H25.2466C25.7332 38.0259 26.1204 37.8926 26.4082 37.626C26.7002 37.3594 26.8462 37.0018 26.8462 36.5532C26.8462 36.1343 26.7065 35.8042 26.4272 35.563C26.1522 35.3175 25.7734 35.1906 25.291 35.1821H23.7295ZM32.4194 36.9595L33.689 32.6875H35.6567L32.8955 40.6221L32.7432 40.9839C32.3327 41.881 31.6556 42.3296 30.7119 42.3296C30.4453 42.3296 30.1745 42.2894 29.8994 42.209V40.8188L30.1787 40.8252C30.5257 40.8252 30.7839 40.7723 30.9531 40.6665C31.1266 40.5607 31.262 40.3851 31.3594 40.1396L31.5752 39.5747L29.1694 32.6875H31.1436L32.4194 36.9595ZM42.563 36.1851C42.563 37.243 42.3218 38.0915 41.8394 38.7305C41.3612 39.3652 40.7137 39.6826 39.897 39.6826C39.203 39.6826 38.6423 39.4414 38.2148 38.959V42.1963H36.3804V32.6875H38.0815L38.145 33.3604C38.5894 32.8271 39.1691 32.5605 39.8843 32.5605C40.7306 32.5605 41.3887 32.8737 41.8584 33.5C42.3281 34.1263 42.563 34.9896 42.563 36.0898V36.1851ZM40.7285 36.0518C40.7285 35.4128 40.6143 34.9198 40.3857 34.5728C40.1615 34.2257 39.8335 34.0522 39.4019 34.0522C38.8263 34.0522 38.4307 34.2723 38.2148 34.7124V37.5244C38.4391 37.9772 38.839 38.2036 39.4146 38.2036C40.2905 38.2036 40.7285 37.4863 40.7285 36.0518ZM48.3838 34.1729H45.54V39.5557H43.7056V32.6875H48.3838V34.1729ZM52.186 39.6826C51.1789 39.6826 50.3579 39.3737 49.7231 38.7559C49.0926 38.138 48.7773 37.3149 48.7773 36.2866V36.1089C48.7773 35.4191 48.9106 34.8034 49.1772 34.2617C49.4438 33.7158 49.8205 33.2969 50.3071 33.0049C50.798 32.7087 51.3566 32.5605 51.9829 32.5605C52.9224 32.5605 53.6608 32.8568 54.1982 33.4492C54.7399 34.0417 55.0107 34.8817 55.0107 35.9692V36.7183H50.6372C50.6965 37.1668 50.8742 37.5265 51.1704 37.7974C51.4709 38.0682 51.8496 38.2036 52.3066 38.2036C53.0133 38.2036 53.5656 37.9476 53.9634 37.4355L54.8647 38.4448C54.5897 38.8341 54.2173 39.1388 53.7476 39.3589C53.2778 39.5747 52.7573 39.6826 52.186 39.6826ZM51.9766 34.0459C51.6126 34.0459 51.3164 34.1686 51.0879 34.4141C50.8636 34.6595 50.7197 35.0107 50.6562 35.4678H53.208V35.3218C53.1995 34.9155 53.0895 34.6024 52.8779 34.3823C52.6663 34.158 52.3659 34.0459 51.9766 34.0459ZM62.2407 36.1851C62.2407 37.243 61.9995 38.0915 61.5171 38.7305C61.0389 39.3652 60.3914 39.6826 59.5747 39.6826C58.8807 39.6826 58.32 39.4414 57.8926 38.959V42.1963H56.0581V32.6875H57.7593L57.8228 33.3604C58.2671 32.8271 58.8468 32.5605 59.562 32.5605C60.4084 32.5605 61.0664 32.8737 61.5361 33.5C62.0059 34.1263 62.2407 34.9896 62.2407 36.0898V36.1851ZM60.4062 36.0518C60.4062 35.4128 60.292 34.9198 60.0635 34.5728C59.8392 34.2257 59.5112 34.0522 59.0796 34.0522C58.5041 34.0522 58.1084 34.2723 57.8926 34.7124V37.5244C58.1169 37.9772 58.5168 38.2036 59.0923 38.2036C59.9683 38.2036 60.4062 37.4863 60.4062 36.0518Z" fill="white"/>
<path d="M82.5 42.3175C82.5 48.0954 81.3517 52.4565 79.3133 55.7589C77.2774 59.0571 74.3275 61.3416 70.6474 62.9241C63.2491 66.1054 52.9831 66.4207 41.5 66.4207C30.0169 66.4207 19.7509 66.1054 12.3526 62.9241C8.67246 61.3416 5.72262 59.0571 3.68675 55.7589C1.64825 52.4565 0.5 48.0954 0.5 42.3175C0.5 19.2131 18.8655 0.5 41.5 0.5C64.1345 0.5 82.5 19.2131 82.5 42.3175Z" stroke="#FF583E"/>
</svg>
