<svg width="32" height="32" viewBox="0 0 32 32" fill="none" xmlns="http://www.w3.org/2000/svg">
<path d="M31.9985 28.1356C31.9662 27.1108 31.5056 26.1338 30.7342 25.4544C29.7913 24.6048 13.3189 9.7629 12.8779 9.36555C13.3128 7.79834 12.9138 6.04799 11.6784 4.81855C11.2595 4.40168 7.69643 0.855868 7.25927 0.420828C6.89317 0.0565014 6.29964 0.0565014 5.93354 0.420828C5.56744 0.785092 5.56744 1.3758 5.93354 1.74013L8.45244 4.24688L6.94991 5.74212L4.43095 3.23531C4.06491 2.87092 3.47138 2.87104 3.10522 3.23531C2.73911 3.59957 2.73911 4.19028 3.10522 4.55461L5.62412 7.0613L4.12159 8.55654L1.60269 6.04985C1.23665 5.68559 0.643059 5.68559 0.276957 6.04985C-0.0891451 6.41412 -0.0891451 7.00482 0.276957 7.36915C4.39339 11.4656 0.45782 7.54908 4.69605 11.7669C5.90042 12.9654 7.64274 13.4065 9.2652 12.9606C35.5276 41.8261 16.0129 20.377 25.4324 30.7301C26.1153 31.4978 27.097 31.9564 28.1269 31.9884C30.2896 32.0563 32.0661 30.2885 31.9985 28.1356Z" fill="#246864"/>
</svg>
