<svg width="48" height="48" viewBox="0 0 48 48" fill="none" xmlns="http://www.w3.org/2000/svg">
<g clip-path="url(#clip0_0_239)">
<path d="M46.3706 21.9924L43.1021 20.5778L40.3265 15.1767C39.5764 13.6978 38.0546 12.7762 36.3936 12.7869H31.614V11.4366C31.614 8.99327 29.6636 7 27.2202 7H4.37262C1.92926 7 0.000285144 9.00399 0.000285144 11.4366V32.1195C-0.0211479 33.6091 1.16838 34.8308 2.65798 34.8522C2.6687 34.8522 2.67941 34.8522 2.70085 34.8522H3.26882C3.26882 34.9594 3.2581 35.0022 3.2581 35.0665C3.24739 38.1315 5.7229 40.6284 8.78782 40.6391C11.8527 40.6498 14.3497 38.1743 14.3604 35.1094C14.3604 35.088 14.3604 35.0773 14.3604 35.0558C14.3604 34.9808 14.3604 34.9487 14.3497 34.8415H32.8142C32.8142 34.9487 32.8142 34.9915 32.8142 35.0558C32.8035 38.1207 35.279 40.6177 38.344 40.6284C41.4089 40.6391 43.9058 38.1636 43.9165 35.0987C43.9165 35.0773 43.9165 35.0665 43.9165 35.0451C43.9165 34.9701 43.9165 34.9379 43.9165 34.8308H45.299C46.7886 34.8308 47.9995 33.6198 47.9995 32.1302C47.9995 32.1195 47.9995 32.1088 47.9995 32.0874V24.4786C48.021 23.4284 47.378 22.4318 46.3706 21.9924ZM8.81997 38.5065C6.93387 38.5065 5.41212 36.9848 5.41212 35.0987C5.41212 33.2126 6.93387 31.6908 8.81997 31.6908C10.7061 31.6908 12.2278 33.2126 12.2278 35.0987C12.2278 36.9741 10.6954 38.5065 8.81997 38.5065ZM29.4707 32.7303H13.846C12.9458 30.7692 10.974 29.5154 8.81997 29.5261C6.65524 29.5154 4.69412 30.7585 3.79393 32.7303H2.70085C2.36863 32.7303 2.14359 32.4731 2.14359 32.1409V26.6219H29.4707V32.7303ZM29.4707 11.4474V24.4786H2.14359V11.4474C2.14359 10.1935 3.11879 9.15402 4.37262 9.15402H27.2202C28.4741 9.16473 29.4814 10.1935 29.4707 11.4366V11.4474ZM31.614 14.9409H36.3936C37.2402 14.9302 38.0332 15.391 38.4297 16.1519L40.573 20.2992H31.614V14.9409ZM38.3761 38.5065C36.49 38.5065 34.9683 36.9848 34.9683 35.0987C34.9683 33.2126 36.49 31.6908 38.3761 31.6908C40.2622 31.6908 41.784 33.2126 41.784 35.0987C41.784 36.9741 40.2622 38.5065 38.3761 38.5065ZM45.867 32.1409C45.867 32.4731 45.6419 32.7303 45.3097 32.7303H43.4022C42.1055 29.9548 38.8048 28.7545 36.0292 30.0512C34.8504 30.5978 33.8966 31.5515 33.3501 32.7303H31.614V22.4425H42.1162L45.524 23.9428C45.7384 24.05 45.8777 24.2857 45.867 24.5215V32.1409Z" fill="black"/>
</g>
<defs>
<clipPath id="clip0_0_239">
<rect width="48" height="48" fill="white"/>
</clipPath>
</defs>
</svg>
