<svg width="48" height="48" viewBox="0 0 48 48" fill="none" xmlns="http://www.w3.org/2000/svg">
<path d="M29.8109 31.2997C29.8975 31.1587 29.9841 31.0203 30.0707 30.8767C33.9666 24.4267 35.9271 18.7844 35.899 14.1085C35.8817 10.8915 34.5918 7.81216 32.311 5.54329C30.0303 3.27443 26.9443 2.00055 23.7272 2C20.5102 1.99946 17.4237 3.27229 15.1422 5.54038C12.8608 7.80847 11.5698 10.8874 11.5514 14.1044C11.5229 18.7844 13.4837 24.4274 17.3796 30.8767C17.4662 31.0203 17.5529 31.1587 17.6395 31.2997C9.4375 32.3133 4 35.2447 4 38.725C4 43.0945 12.6625 46.5172 23.725 46.5172C34.7875 46.5172 43.45 43.0945 43.45 38.725C43.45 35.2447 38.0125 32.3133 29.8109 31.2997ZM12.8639 14.1085C12.8557 12.6768 13.1307 11.2577 13.6731 9.93262C14.2154 8.60758 15.0143 7.40284 16.0239 6.38769C17.0335 5.37253 18.2338 4.56699 19.5559 4.01741C20.8779 3.46782 22.2955 3.18503 23.7273 3.1853C25.159 3.18558 26.5765 3.4689 27.8983 4.01899C29.2202 4.56908 30.4202 5.37507 31.4294 6.39061C32.4386 7.40615 33.2371 8.6112 33.7789 9.93644C34.3207 11.2617 34.5952 12.681 34.5865 14.1127C34.6427 23.4344 25.9277 34.9315 23.725 37.6885C21.5222 34.9315 12.8069 23.434 12.8639 14.1085ZM23.725 45.2047C12.7109 45.2047 5.3125 41.854 5.3125 38.725C5.3125 35.95 10.7984 33.3682 18.4127 32.5308C19.8854 34.8302 21.4923 37.0408 23.2251 39.151C23.2867 39.2236 23.3632 39.2819 23.4496 39.3218C23.5359 39.3618 23.6299 39.3825 23.725 39.3825C23.8201 39.3825 23.9141 39.3618 24.0004 39.3218C24.0868 39.2819 24.1633 39.2236 24.2249 39.151C25.9578 37.0408 27.5648 34.8302 29.0376 32.5308C36.6501 33.3682 42.1379 35.9485 42.1379 38.725C42.1375 41.854 34.7391 45.2047 23.725 45.2047Z" fill="black"/>
<path d="M18.5902 40.9502C15.678 40.5775 13.3402 39.9212 12.0097 39.1033C11.9363 39.0564 11.8543 39.0245 11.7684 39.0097C11.6825 38.9948 11.5946 38.9971 11.5096 39.0166C11.4247 39.0361 11.3445 39.0723 11.2737 39.1231C11.2028 39.1739 11.1429 39.2383 11.0972 39.3125C11.0516 39.3867 11.0212 39.4693 11.0078 39.5554C10.9944 39.6416 10.9983 39.7295 11.0193 39.8141C11.0402 39.8986 11.0778 39.9782 11.1298 40.0481C11.1819 40.118 11.2473 40.1769 11.3223 40.2212C12.8085 41.1347 15.3307 41.8562 18.4237 42.2518C18.4516 42.2554 18.4796 42.2572 18.5077 42.2571C18.6741 42.2563 18.8339 42.1923 18.9549 42.0782C19.0759 41.964 19.149 41.8082 19.1595 41.6422C19.17 41.4762 19.117 41.3124 19.0113 41.1839C18.9057 41.0555 18.7551 40.9719 18.5902 40.9502Z" fill="black"/>
<path d="M24.4776 42.0184C23.563 42.0394 22.6105 42.0346 21.6809 42.0004C21.5947 41.9973 21.5087 42.0111 21.4279 42.0411C21.3471 42.0712 21.2729 42.1169 21.2098 42.1756C21.1466 42.2342 21.0956 42.3048 21.0597 42.3832C21.0237 42.4616 21.0036 42.5463 21.0004 42.6325C20.9973 42.7187 21.0111 42.8046 21.0411 42.8855C21.0712 42.9663 21.1169 43.0404 21.1756 43.1036C21.2342 43.1668 21.3048 43.2178 21.3832 43.2537C21.4616 43.2896 21.5463 43.3098 21.6325 43.3129C22.2093 43.3339 22.795 43.3448 23.3755 43.3448C23.7573 43.3448 24.1349 43.3403 24.5084 43.3313C24.6824 43.3273 24.8477 43.2543 24.9678 43.1284C25.088 43.0025 25.1533 42.8341 25.1493 42.6601C25.1484 42.5735 25.1302 42.488 25.0957 42.4086C25.0613 42.3292 25.0113 42.2575 24.9487 42.1977C24.8861 42.1379 24.8122 42.0912 24.7313 42.0605C24.6504 42.0297 24.5641 42.0154 24.4776 42.0184Z" fill="black"/>
<path d="M29.0835 14.541C29.0834 13.445 28.7582 12.3736 28.1492 11.4623C27.5401 10.5511 26.6745 9.84091 25.6619 9.42159C24.6492 9.00228 23.535 8.89266 22.46 9.1066C21.3851 9.32055 20.3977 9.84845 19.6227 10.6235C18.8478 11.3986 18.3201 12.3861 18.1064 13.4611C17.8927 14.5361 18.0025 15.6503 18.422 16.6629C18.8415 17.6755 19.5519 18.5409 20.4633 19.1498C21.3746 19.7586 22.4461 20.0836 23.5421 20.0835C25.0114 20.0817 26.42 19.4972 27.4589 18.4581C28.4977 17.419 29.082 16.0103 29.0835 14.541ZM19.3129 14.541C19.313 13.7046 19.5612 12.887 20.026 12.1916C20.4908 11.4962 21.1514 10.9542 21.9242 10.6342C22.697 10.3142 23.5473 10.2306 24.3677 10.3939C25.188 10.5571 25.9415 10.96 26.5329 11.5515C27.1243 12.143 27.527 12.8966 27.6902 13.7169C27.8533 14.5373 27.7695 15.3876 27.4494 16.1604C27.1292 16.9331 26.5872 17.5936 25.8917 18.0583C25.1962 18.523 24.3786 18.771 23.5421 18.771C22.4207 18.7698 21.3455 18.3237 20.5526 17.5307C19.7597 16.7377 19.3139 15.6624 19.3129 14.541Z" fill="black"/>
</svg>
